<?xml version="1.0" encoding="utf-8"?>
<!-- Generator: Adobe Illustrator 24.0.3, SVG Export Plug-In . SVG Version: 6.00 Build 0)  -->
<svg version="1.1" id="Layer_1" xmlns="http://www.w3.org/2000/svg" xmlns:xlink="http://www.w3.org/1999/xlink" x="0px" y="0px"
	 viewBox="0 0 1000 1000" style="enable-background:new 0 0 1000 1000;" xml:space="preserve">
<style type="text/css">
	.st0{fill:#FFFFFF;stroke:#000000;stroke-miterlimit:10;}
</style>
<circle class="st0" cx="481.1" cy="485.2" r="454"/>
<path d="M160.1,161.2c42.1-42.1,92-76.3,146.8-100.1c54.8-23.9,114.2-37.5,174.6-39.7c60.4-2.3,121.7,6.9,179.6,27.6L672,53
	c3.6,1.4,7.3,2.6,10.8,4.2l10.6,4.6c3.5,1.6,7.2,3,10.6,4.7l10.4,5.1l5.2,2.6c0.9,0.4,1.8,0.8,2.6,1.3l2.5,1.4l10.2,5.6l5.1,2.8
	l2.5,1.4l2.5,1.5c26.7,15.9,52,34.5,75.4,55.5c46.6,42,85.7,93.6,113.1,151.7c27.4,58,43,122.2,45.2,187.2c2.2,65-9,131-33.2,192.2
	l-4.7,11.4c-1.6,3.8-3.1,7.6-4.9,11.3l-5.3,11.1c-1.8,3.7-3.5,7.5-5.5,11.1l-5.9,10.9l-3,5.4c-0.5,0.9-1,1.8-1.5,2.7l-1.6,2.6
	l-6.5,10.5l-3.2,5.3l-1.6,2.6l-1.7,2.6c-18.1,27.6-39.1,53.2-62.3,76.5l-17.9,17c-6.2,5.4-12.5,10.7-18.7,16.1
	c-1.5,1.4-3.2,2.6-4.8,3.9l-4.9,3.8l-9.8,7.5c-0.8,0.6-1.6,1.3-2.5,1.9l-2.5,1.8l-5.1,3.5l-10.2,7c-27.6,18.1-56.9,33.4-87.5,45.4
	c-61.2,24.1-127.1,35.3-192.1,33.1c-8.1-0.5-16.2-0.9-24.3-1.4c-8.1-0.9-16.1-1.7-24.2-2.7c-8-1.3-16-2.5-24-3.9l-11.9-2.5l-5.9-1.3
	c-2-0.4-4-0.8-5.9-1.3l-11.7-3.1l-5.8-1.5l-2.9-0.8c-1-0.3-1.9-0.6-2.9-0.9l-11.5-3.7l-5.7-1.8l-2.9-0.9l-2.8-1l-11.3-4.2l-5.6-2.1
	l-2.8-1.1l-2.8-1.2l-11.1-4.8l-5.5-2.4c-0.9-0.4-1.8-0.8-2.7-1.2l-2.7-1.3c-58-27.4-109.7-66.4-151.6-113
	c-21-23.3-39.6-48.6-55.5-75.3l-1.5-2.5l-1.4-2.5l-2.8-5.1l-5.6-10.2l-1.4-2.5c-0.5-0.8-0.9-1.7-1.3-2.6l-2.6-5.2L65.6,705
	c-1.8-3.4-3.2-7-4.7-10.6l-4.6-10.6c-1.6-3.5-2.8-7.2-4.2-10.8L48,662.2l-1-2.7c-0.3-0.9-0.6-1.8-0.9-2.7l-1.8-5.5l-3.5-11l-0.9-2.7
	l-0.8-2.8l-1.5-5.6l-3-11.1l-0.7-2.8l-0.6-2.8L32,607l-2.5-11.2c-0.5-1.9-0.8-3.7-1.1-5.6l-1-5.6l-2-11.3
	c-4.7-30.1-6.2-60.5-5.2-90.7c2.2-60.4,15.8-119.9,39.6-174.6C83.8,253.2,118,203.3,160.1,161.2z M164.2,165.3
	c-20.7,20.8-39.4,43.6-55.8,68.1C92.1,257.8,78.2,283.8,67,311c-22.4,54.3-34,113-33.9,171.7c0.1,58.7,11.9,117.3,34.5,171.4
	c11.3,27.1,25.3,53,41.6,77.3c16.4,24.3,35.1,47,55.9,67.6c20.8,20.6,43.6,39.2,67.9,55.4c24.4,16.2,50.3,30,77.4,41.1
	c27.1,11.1,55.2,19.5,83.9,25.1c28.7,5.6,57.9,8.3,87.1,8.4c58.4-0.1,116.8-11.7,170.8-34.1c27-11.2,52.8-25.1,77-41.3
	c24.2-16.3,46.9-34.9,67.5-55.6c20.6-20.7,39.3-43.3,55.6-67.5c16.3-24.2,30.1-50.1,41.3-77c22.4-53.9,34-112.3,34.1-170.7
	c0-29.2-2.8-58.4-8.4-87.1c-5.6-28.7-14-56.8-25.1-83.9c-11.1-27.1-24.9-53-41.1-77.4c-16.2-24.4-34.8-47.1-55.4-67.9
	c-20.7-20.7-43.3-39.5-67.6-55.9c-24.3-16.4-50.2-30.3-77.3-41.6c-54.1-22.6-112.7-34.4-171.4-34.5c-58.7-0.1-117.4,11.5-171.7,33.9
	c-27.1,11.2-53.2,25.1-77.6,41.4C207.8,125.8,185,144.6,164.2,165.3z"/>
<path d="M741.1,743.4c-34.2,34.2-74.8,61.9-119.4,81c-44.5,19.1-92.8,29.8-141.7,31.1c-48.8,1.3-98.2-6.7-144.6-24
	c-46.4-17.2-89.7-43.8-126.6-77.8c-18.4-17.1-35.3-36-50.2-56.4c-14.9-20.5-27.8-42.5-38.4-65.8c-10.5-23.2-18.9-47.5-24.6-72.6
	c-0.4-1.6-0.7-3.1-1-4.7l-0.9-4.7l-1.9-9.4c-1.1-6.3-1.9-12.7-2.9-19.1c-0.7-6.4-1.3-12.8-2-19.2l-1-19.3
	c-1.3-51.6,7.9-103.7,27.2-152c19.2-48.3,48.6-92.7,85.4-129.5c18.4-18.4,38.7-35,60.4-49.3l2-1.4l2.1-1.3l4.2-2.6l8.3-5.1
	c2.7-1.8,5.7-3.2,8.5-4.8l8.6-4.7c2.8-1.6,5.8-2.9,8.7-4.4l8.8-4.2c2.9-1.5,6-2.6,8.9-3.9l9-3.8c48.3-19.3,100.4-28.6,152-27.3
	c25.8,0.7,51.5,3.9,76.5,9.7c25,5.7,49.4,14.1,72.6,24.6c23.2,10.5,45.3,23.5,65.8,38.4c20.5,14.9,39.4,31.8,56.5,50.2
	c34.1,36.9,60.6,80.3,77.8,126.7c17.3,46.4,25.2,95.8,24,144.6c-1.3,48.8-11.9,97.2-31.1,141.7C803,668.6,775.3,709.2,741.1,743.4z
	 M741.1,743.4c34.2-34.2,61.4-75.3,79.1-120.1c17.9-44.8,26.3-93.1,25-140.9l-0.9-17.9c-0.6-5.9-1.2-11.9-1.9-17.8
	c-0.9-5.9-1.7-11.8-2.7-17.7l-1.8-8.8l-0.9-4.4c-0.3-1.5-0.6-2.9-1-4.4c-5.4-23.2-13.2-45.7-23-67.1c-9.8-21.5-21.9-41.8-35.7-60.7
	c-13.8-18.9-29.5-36.3-46.6-52.1c-34.3-31.4-74.4-55.8-117.2-71.5c-42.9-15.8-88.5-23.1-133.5-21.8c-45.1,1.3-89.6,11.2-130.6,28.8
	c-41,17.6-78.4,43.1-110,74.7c-31.5,31.6-57.1,68.9-74.7,110c-17.7,41-27.6,85.5-28.9,130.6c-1.3,45.1,6,90.7,21.8,133.6
	c15.8,42.9,40.1,83,71.6,117.3c15.8,17.1,33.2,32.8,52.1,46.6c18.9,13.8,39.3,25.9,60.7,35.7c21.5,9.8,44,17.6,67.1,23
	c23.2,5.4,46.9,8.5,70.9,9.1c47.8,1.3,96.1-7.2,140.9-25.1C665.8,804.8,706.9,777.6,741.1,743.4z"/>
<path d="M450.3,692l-22.5,1.3l-23.2,1.5l-23.8,1.5c-8,0.5-16.1,0.9-24.2,1.3l-5.3,0.3l-0.3-5.8c-1.7-34.7-3-69.4-4.1-104.1
	l-1.5-52.1c-0.4-17.4-0.9-34.7-1.2-52.1c-0.7-34.7-1.2-69.4-1.5-104.1l-0.4-52.1l-0.1-52.1l0-14.5l14.5,0l46.8,0.1l23.4,0.1
	l23.4,0.2l14.2,0.1l-0.1,13.9l-0.2,26.6l-0.4,26.6l-0.4,26.6l-0.6,26.6l-0.6,26.5l-0.8,26.4c-0.5,17.6-1.1,35.1-1.7,52.6
	c-1.3,34.9-2.7,69.6-4.3,103.7C453.7,625.4,452.1,659.1,450.3,692z M450.3,692c-1.8-36.5-3.5-72.2-5-107.5
	c-1.6-35.3-3-70.1-4.3-104.5c-0.6-17.2-1.3-34.4-1.7-51.5l-0.8-25.6l-0.6-25.5l-0.6-25.5l-0.4-25.4l-0.4-25.4l-0.2-25.4l14,14
	l-23.4,0.2l-23.4,0.1l-46.8,0.1l14.5-14.5l-0.1,52.1l-0.4,52.1c-0.3,34.7-0.8,69.4-1.5,104.1c-0.3,17.4-0.8,34.7-1.2,52.1l-1.5,52.1
	c-1.1,34.7-2.5,69.4-4.1,104.1l-5.5-5.5c7.5,0.4,15,0.8,22.6,1.3l23.1,1.5l23.7,1.5C434,691.2,442.1,691.6,450.3,692z"/>
<path d="M609.9,692l-22.5,1.3l-23.2,1.5l-23.8,1.5c-8,0.5-16.1,0.9-24.2,1.3l-5.3,0.3l-0.3-5.8c-1.7-34.7-3-69.4-4.1-104.1
	l-1.5-52.1c-0.4-17.4-0.9-34.7-1.2-52.1c-0.7-34.7-1.2-69.4-1.5-104.1l-0.4-52.1l-0.1-52.1l0-14.5l14.5,0l46.8,0.1l23.4,0.1
	l23.4,0.2l14.2,0.1l-0.1,13.9l-0.2,26.6l-0.4,26.6l-0.4,26.6l-0.6,26.6l-0.6,26.5l-0.8,26.4c-0.5,17.6-1.1,35.1-1.7,52.6
	c-1.3,34.9-2.7,69.6-4.3,103.7C613.4,625.4,611.7,659.1,609.9,692z M609.9,692c-1.8-36.5-3.5-72.2-5-107.5
	c-1.6-35.3-3-70.1-4.3-104.5c-0.6-17.2-1.3-34.4-1.7-51.5l-0.8-25.6l-0.6-25.5l-0.6-25.5l-0.4-25.4l-0.4-25.4l-0.2-25.4l14,14
	l-23.4,0.2l-23.4,0.1l-46.8,0.1l14.5-14.5l-0.1,52.1l-0.4,52.1c-0.3,34.7-0.8,69.4-1.5,104.1c-0.3,17.4-0.8,34.7-1.2,52.1l-1.5,52.1
	c-1.1,34.7-2.5,69.4-4.1,104.1l-5.5-5.5c7.5,0.4,15,0.8,22.6,1.3l23.1,1.5l23.7,1.5C593.6,691.2,601.7,691.6,609.9,692z"/>
</svg>
