<?xml version="1.0" encoding="utf-8"?>
<!-- Generator: Adobe Illustrator 24.0.3, SVG Export Plug-In . SVG Version: 6.00 Build 0)  -->
<svg version="1.1" id="Layer_1" xmlns="http://www.w3.org/2000/svg" xmlns:xlink="http://www.w3.org/1999/xlink" x="0px" y="0px"
	 viewBox="0 0 502 230" style="enable-background:new 0 0 502 230;" xml:space="preserve">
<style type="text/css">
	.st0{enable-background:new    ;}
	.st1{fill:#F2F2F2;}
	.st2{fill:none;stroke:#000000;stroke-width:7;stroke-miterlimit:10;}
</style>
<g class="st0">
	<path d="M33.1,36.3h39.2c13.2,0,23.1,3.5,29.7,10.6c6.6,7.1,9.9,17.5,9.9,31.2v16.7c0,13.7-3.3,24.1-9.9,31.2
		c-6.6,7.1-16.5,10.6-29.7,10.6H59.7v68.9H33.1V36.3z M72.3,112.5c4.4,0,7.6-1.2,9.8-3.6c2.2-2.4,3.3-6.5,3.3-12.3V76.5
		c0-5.8-1.1-9.9-3.3-12.3c-2.2-2.4-5.4-3.6-9.8-3.6H59.7v52H72.3z"/>
	<path d="M138.6,36.3h36l27.6,169.3h-26.6l-4.8-33.6v0.5h-30.2l-4.8,33.1H111L138.6,36.3z M167.6,149.5l-11.9-83.7h-0.5l-11.6,83.7
		H167.6z"/>
	<path d="M223.7,197c-6.8-7.3-10.2-17.9-10.2-31.6V36.3h26.6v131.1c0,5.8,1.2,10,3.5,12.6c2.3,2.6,5.7,3.9,10,3.9
		c4.4,0,7.7-1.3,10-3.9c2.3-2.6,3.5-6.8,3.5-12.6V36.3h25.6v129.1c0,13.7-3.4,24.2-10.2,31.6c-6.8,7.3-16.6,11-29.5,11
		C240.3,208.1,230.5,204.4,223.7,197z"/>
	<path d="M317,197c-6.6-7.3-9.9-17.9-9.9-31.6v-9.7h25.2v11.6c0,11,4.6,16.4,13.8,16.4c4.5,0,7.9-1.3,10.3-4c2.3-2.7,3.5-7,3.5-12.9
		c0-7.1-1.6-13.3-4.8-18.7c-3.2-5.4-9.2-11.9-17.9-19.5c-11-9.7-18.6-18.4-23-26.2c-4.4-7.8-6.5-16.6-6.5-26.5
		c0-13.4,3.4-23.7,10.2-31.1c6.8-7.3,16.6-11,29.5-11c12.7,0,22.4,3.7,28.9,11c6.5,7.3,9.8,17.9,9.8,31.6v7h-25.2v-8.7
		c0-5.8-1.1-10-3.4-12.7c-2.3-2.7-5.6-4-9.9-4c-8.9,0-13.3,5.4-13.3,16.2c0,6.1,1.7,11.9,5,17.2c3.3,5.3,9.3,11.8,18,19.3
		c11.1,9.7,18.8,18.5,23,26.4c4.2,7.9,6.3,17.2,6.3,27.8c0,13.9-3.4,24.5-10.3,31.9c-6.9,7.4-16.8,11.1-29.9,11.1
		C333.4,208.1,323.6,204.4,317,197z"/>
	<path d="M401.7,36.3h72.6v24.2h-46v44.7h36.5v24.2h-36.5v52h46v24.2h-72.6V36.3z"/>
</g>
<g class="st0">
	<path class="st1" d="M16.9,20.1h39.2c13.2,0,23.1,3.5,29.7,10.6c6.6,7.1,9.9,17.5,9.9,31.2v16.7c0,13.7-3.3,24.1-9.9,31.2
		c-6.6,7.1-16.5,10.6-29.7,10.6H43.5v68.9H16.9V20.1z M56.1,96.3c4.4,0,7.6-1.2,9.8-3.6c2.2-2.4,3.3-6.5,3.3-12.3V60.3
		c0-5.8-1.1-9.9-3.3-12.3c-2.2-2.4-5.4-3.6-9.8-3.6H43.5v52H56.1z"/>
	<path class="st1" d="M122.4,20.1h36L186,189.4h-26.6l-4.8-33.6v0.5h-30.2l-4.8,33.1H94.8L122.4,20.1z M151.4,133.3l-11.9-83.7h-0.5
		l-11.6,83.7H151.4z"/>
	<path class="st1" d="M207.5,180.8c-6.8-7.3-10.2-17.9-10.2-31.6V20.1h26.6v131.1c0,5.8,1.2,10,3.5,12.6c2.3,2.6,5.7,3.9,10,3.9
		c4.4,0,7.7-1.3,10-3.9c2.3-2.6,3.5-6.8,3.5-12.6V20.1h25.6v129.1c0,13.7-3.4,24.2-10.2,31.6c-6.8,7.3-16.6,11-29.5,11
		C224.1,191.8,214.3,188.2,207.5,180.8z"/>
	<path class="st1" d="M300.9,180.8c-6.6-7.3-9.9-17.9-9.9-31.6v-9.7h25.2v11.6c0,11,4.6,16.4,13.8,16.4c4.5,0,7.9-1.3,10.3-4
		c2.3-2.7,3.5-7,3.5-12.9c0-7.1-1.6-13.3-4.8-18.7c-3.2-5.4-9.2-11.9-17.9-19.5c-11-9.7-18.6-18.4-23-26.2
		c-4.4-7.8-6.5-16.6-6.5-26.5c0-13.4,3.4-23.7,10.2-31.1c6.8-7.3,16.6-11,29.5-11c12.7,0,22.4,3.7,28.9,11
		c6.5,7.3,9.8,17.9,9.8,31.6v7h-25.2v-8.7c0-5.8-1.1-10-3.4-12.7c-2.3-2.7-5.6-4-9.9-4c-8.9,0-13.3,5.4-13.3,16.2
		c0,6.1,1.7,11.9,5,17.2c3.3,5.3,9.3,11.8,18,19.3c11.1,9.7,18.8,18.5,23,26.4c4.2,7.9,6.3,17.2,6.3,27.8c0,13.9-3.4,24.5-10.3,31.9
		c-6.9,7.4-16.8,11.1-29.9,11.1C317.2,191.8,307.5,188.2,300.9,180.8z"/>
	<path class="st1" d="M385.5,20.1h72.6v24.2h-46V89h36.5v24.2h-36.5v52h46v24.2h-72.6V20.1z"/>
</g>
<g class="st0">
	<path class="st2" d="M16.9,20.1h39.2c13.2,0,23.1,3.5,29.7,10.6c6.6,7.1,9.9,17.5,9.9,31.2v16.7c0,13.7-3.3,24.1-9.9,31.2
		c-6.6,7.1-16.5,10.6-29.7,10.6H43.5v68.9H16.9V20.1z M56.1,96.3c4.4,0,7.6-1.2,9.8-3.6c2.2-2.4,3.3-6.5,3.3-12.3V60.3
		c0-5.8-1.1-9.9-3.3-12.3c-2.2-2.4-5.4-3.6-9.8-3.6H43.5v52H56.1z"/>
	<path class="st2" d="M122.4,20.1h36L186,189.4h-26.6l-4.8-33.6v0.5h-30.2l-4.8,33.1H94.8L122.4,20.1z M151.4,133.3l-11.9-83.7h-0.5
		l-11.6,83.7H151.4z"/>
	<path class="st2" d="M207.5,180.8c-6.8-7.3-10.2-17.9-10.2-31.6V20.1h26.6v131.1c0,5.8,1.2,10,3.5,12.6c2.3,2.6,5.7,3.9,10,3.9
		c4.4,0,7.7-1.3,10-3.9c2.3-2.6,3.5-6.8,3.5-12.6V20.1h25.6v129.1c0,13.7-3.4,24.2-10.2,31.6c-6.8,7.3-16.6,11-29.5,11
		C224.1,191.8,214.3,188.2,207.5,180.8z"/>
	<path class="st2" d="M300.9,180.8c-6.6-7.3-9.9-17.9-9.9-31.6v-9.7h25.2v11.6c0,11,4.6,16.4,13.8,16.4c4.5,0,7.9-1.3,10.3-4
		c2.3-2.7,3.5-7,3.5-12.9c0-7.1-1.6-13.3-4.8-18.7c-3.2-5.4-9.2-11.9-17.9-19.5c-11-9.7-18.6-18.4-23-26.2
		c-4.4-7.8-6.5-16.6-6.5-26.5c0-13.4,3.4-23.7,10.2-31.1c6.8-7.3,16.6-11,29.5-11c12.7,0,22.4,3.7,28.9,11
		c6.5,7.3,9.8,17.9,9.8,31.6v7h-25.2v-8.7c0-5.8-1.1-10-3.4-12.7c-2.3-2.7-5.6-4-9.9-4c-8.9,0-13.3,5.4-13.3,16.2
		c0,6.1,1.7,11.9,5,17.2c3.3,5.3,9.3,11.8,18,19.3c11.1,9.7,18.8,18.5,23,26.4c4.2,7.9,6.3,17.2,6.3,27.8c0,13.9-3.4,24.5-10.3,31.9
		c-6.9,7.4-16.8,11.1-29.9,11.1C317.2,191.8,307.5,188.2,300.9,180.8z"/>
	<path class="st2" d="M385.5,20.1h72.6v24.2h-46V89h36.5v24.2h-36.5v52h46v24.2h-72.6V20.1z"/>
</g>
</svg>
