# Blender v2.79 (sub 7) OBJ File: 'podium.blend'
# www.blender.org
mtllib podium.mtl
o Cube.001
v 1.277589 -0.985442 -1.000000
v 2.022462 -0.985442 1.607589
v -1.000000 -0.985442 1.455615
v -1.000000 -0.985442 -1.000000
v 1.000000 1.472617 -0.999999
v 0.999999 1.303640 0.806526
v -1.000000 1.472617 1.000000
v -1.000000 1.472617 -1.000000
v 1.560948 -0.974436 -2.801948
v 1.000000 -0.974436 -1.021799
v -1.000000 -0.974436 -1.015845
v -1.000000 -0.974436 -3.894375
v 1.000000 0.635069 -2.488494
v 0.999999 0.635069 -1.021798
v -1.000000 0.635069 -1.015846
v -1.000000 0.635069 -2.835783
v 1.000000 -0.985058 1.577933
v 1.752940 -0.985058 3.027487
v -1.000000 -0.985058 3.102782
v -1.000000 -0.985058 1.489814
v 1.000000 0.285869 1.168862
v 0.999999 0.083581 2.791232
v -1.000000 0.285869 2.791231
v -1.000000 0.285869 1.236245
vt 0.000000 0.073920
vt 0.264302 0.000000
vt 0.248898 0.299944
vt 0.000000 0.299944
vt 0.283538 0.605559
vt 0.466950 0.605783
vt 0.466950 0.804197
vt 0.472179 0.572331
vt 0.476813 0.392602
vt 0.676451 0.562385
vt 0.676451 0.303529
vt 0.726595 0.243691
vt 0.523877 0.198476
vt 0.523877 0.000000
vt 0.726595 0.000000
vt 0.472179 0.602800
vt 0.673290 0.572331
vt 0.673290 0.796554
vt 0.472179 0.799696
vt 0.264302 0.804328
vt 0.264302 0.303529
vt 0.472179 0.306004
vt 0.270822 0.502540
vt 0.472179 0.605559
vt 0.264302 0.195119
vt 0.321159 0.000000
vt 0.523877 0.000000
vt 0.523877 0.303529
vt 0.878964 0.805471
vt 0.711506 0.805471
vt 0.879099 0.607058
vt 0.676451 0.607058
vt 1.000000 0.199119
vt 0.870993 0.198425
vt 0.870992 0.000000
vt 1.000000 0.000694
vt 0.809188 0.607058
vt 0.676451 0.607058
vt 0.676451 0.408582
vt 0.809188 0.303529
vt 0.726595 0.247681
vt 0.732701 0.046521
vt 0.870992 0.266017
vt 0.140477 0.967277
vt 0.009754 0.967277
vt 0.140571 0.803265
vt 0.000000 0.771978
vt 0.870992 0.000000
vt 0.234296 0.498420
vt 0.007632 0.573140
vt 0.000000 0.299944
vt 0.234296 0.299944
vt 0.000000 0.573571
vt 0.203073 0.573140
vt 0.000134 0.771978
vt 0.202788 0.771978
vt 0.140571 1.000000
vt 0.145137 0.800915
vt 0.243616 0.994042
vt 0.983913 0.836452
vt 0.879099 0.805534
vt 0.879099 0.607058
vt 0.983913 0.607058
vt 0.472179 0.801320
vt 0.576163 0.799695
vt 0.576163 0.996591
vt 0.472179 0.998215
vt 0.809188 0.304351
vt 0.918488 0.303529
vt 0.826707 0.502757
vt 0.918488 0.576826
vt 0.243616 0.771978
vn 0.0000 -1.0000 -0.0000
vn -0.0000 0.9957 0.0931
vn 0.9936 0.1122 0.0105
vn 0.9122 0.3163 -0.2606
vn -1.0000 -0.0000 -0.0000
vn 0.0000 0.0000 -1.0000
vn 0.0842 0.9964 0.0000
vn 0.1098 0.1811 0.9773
vn -0.0477 0.3109 0.9493
vn 0.0000 1.0000 0.0000
vn 0.0030 -0.0000 1.0000
vn 0.1436 0.5438 -0.8268
vn 1.0000 0.0000 0.0000
vn 0.9199 0.2641 0.2899
vn 0.3741 0.3012 -0.8771
vn 0.1006 0.9949 0.0000
vn 0.0042 0.9923 0.1237
vn 0.0050 -0.2523 -0.9676
vn 0.0241 0.2380 0.9710
vn 0.0266 0.2336 0.9720
vn 0.7863 0.4637 -0.4084
usemtl Material
s off
f 1/1/1 2/2/1 3/3/1 4/4/1
f 6/5/2 5/6/2 8/7/2
f 5/8/3 6/9/3 1/10/3
f 2/11/4 1/10/4 6/9/4
f 3/12/5 7/13/5 8/14/5 4/15/5
f 5/16/6 1/17/6 4/18/6 8/19/6
f 7/20/7 6/5/7 8/7/7
f 7/21/8 3/22/8 6/23/8
f 3/22/9 2/24/9 6/23/9
f 9/25/1 10/26/1 11/27/1 12/28/1
f 14/29/10 13/30/10 15/31/10
f 16/32/10 15/31/10 13/30/10
f 10/33/11 14/34/11 15/35/11 11/36/11
f 11/37/5 15/38/5 16/39/5 12/40/5
f 16/41/12 13/42/12 12/43/12
f 14/44/13 10/45/13 13/46/13
f 10/45/14 9/47/14 13/46/14
f 12/43/15 13/42/15 9/48/15
f 17/49/1 18/50/1 19/51/1 20/52/1
f 23/53/16 22/54/16 24/55/16
f 22/54/17 21/56/17 24/55/17
f 21/57/13 22/58/13 17/59/13
f 19/60/5 23/61/5 24/62/5 20/63/5
f 21/64/18 17/65/18 20/66/18 24/67/18
f 23/68/19 19/69/19 22/70/19
f 19/69/20 18/71/20 22/70/20
f 18/72/21 17/59/21 22/58/21
