# Blender v2.79 (sub 7) OBJ File: 'rock.blend'
# www.blender.org
mtllib rock.mtl
o Cube
v -1.448071 0.085371 1.448071
v -1.448071 -0.085371 1.448071
v -1.448071 0.085371 -1.448071
v -1.448071 -0.085371 -1.448071
v 1.448071 0.085371 1.448071
v 1.448071 -0.085371 1.448071
v 1.448071 0.085371 -1.448071
v 1.448071 -0.085371 -1.448071
v -1.068903 0.359286 1.061485
v -1.019743 0.110425 -1.114275
v -0.750469 2.665357 -1.000000
v 1.057823 0.104849 1.055937
v 0.868275 2.632290 0.498893
v 1.000000 0.180642 -1.142043
v 0.837809 2.435653 -0.936145
v -1.370358 0.180642 0.000000
v -0.623615 2.865161 -0.046459
v 1.000000 0.180642 0.000000
v 0.806846 2.616561 0.000000
v -1.000000 1.524462 1.000000
v -1.000000 1.524462 -1.000000
v 1.117858 1.524462 -0.903510
v 1.000000 1.524462 1.000000
v 1.221178 1.524462 0.000000
v -1.000000 1.524462 0.000000
v 0.003123 0.180642 -1.401168
v -0.076840 2.868283 -0.728092
v 0.003123 0.180642 1.186526
v 0.003123 2.688208 0.736654
v 0.003123 2.902266 0.000000
v -1.448071 0.085371 0.000000
v 0.003123 1.524462 -1.000000
v 0.000000 0.085371 -1.448071
v 1.448071 0.085371 0.000000
v 0.000000 0.085371 1.448071
v 0.000000 1.701181 1.144513
vt 0.444517 0.899976
vt 0.473126 0.450251
vt 0.366957 0.922895
vt 0.404694 0.449889
vt 0.428949 0.068106
vt 0.498491 0.001551
vt 0.452187 0.000000
vt 0.911573 0.169831
vt 0.939587 0.175588
vt 0.939587 0.154076
vt 0.150956 0.011285
vt 0.099951 0.096348
vt 0.163972 0.156857
vt 0.101024 0.000000
vt 0.050613 0.071518
vt 0.911482 0.138703
vt 0.946933 0.148922
vt 0.946933 0.131680
vt 0.671361 0.943446
vt 0.713345 0.930872
vt 0.668272 0.871228
vt 0.541558 0.450614
vt 0.099693 0.910588
vt 0.177846 0.910612
vt 0.099397 0.461753
vt 0.065728 0.091148
vt 0.031261 0.461491
vt 0.712549 0.481626
vt 0.027356 0.935956
vt 0.161365 0.461660
vt 0.337557 0.089264
vt 0.267860 0.057507
vt 0.269561 0.089403
vt 0.366957 0.538925
vt 0.306589 0.988906
vt 0.362426 0.843824
vt 0.290755 0.539175
vt 0.257472 0.921063
vt 0.222108 0.539442
vt 0.198189 0.066324
vt 0.911482 0.146007
vt 0.911482 0.088920
vt 0.812414 0.145968
vt 0.882871 0.154076
vt 0.911535 0.064167
vt 0.939477 0.073007
vt 0.939477 0.040407
vt 0.911482 0.107902
vt 0.985317 0.131680
vt 0.985317 0.088842
vt 0.541558 0.007706
vt 0.615587 0.032571
vt 0.614292 0.000487
vt 0.981619 0.000000
vt 0.911535 0.020204
vt 0.949401 0.020230
vt 0.981619 0.040407
vt 0.099095 0.942911
vt 0.198189 0.942942
vt 0.366957 0.057122
vt 0.364220 0.000000
vt 0.713346 0.088842
vt 0.911535 0.031784
vt 0.812440 0.031753
vt 0.911535 0.088842
vt 0.713346 0.031723
vt 0.713346 0.088781
vt 1.000000 0.211221
vt 0.911373 0.262317
vt 1.000000 0.275102
vt 0.911373 0.268262
vt 0.911373 0.239703
vt 0.713346 0.268339
vt 0.000000 0.942880
vt 0.000000 0.999939
vt 0.198189 1.000000
vt 0.713346 0.211221
vt 0.911573 0.211221
vt 0.911573 0.154076
vt 0.713346 0.154076
vt 0.812336 0.000000
vt 0.692483 0.092041
vt 0.713346 0.000000
vt 0.521087 0.840456
vt 0.541558 0.932410
vt 0.648213 0.540908
vt 0.575741 0.482299
vt 0.607418 0.853040
vn -0.9182 0.2530 -0.3049
vn -0.9999 0.0140 0.0000
vn -0.9769 0.2137 0.0000
vn -0.9597 0.2719 0.0707
vn -0.2199 0.9603 -0.1720
vn 0.0540 0.9978 -0.0381
vn 0.3916 0.9058 -0.1621
vn 0.3339 0.9392 -0.0805
vn 0.3231 0.9088 0.2641
vn -0.0561 0.9976 -0.0404
vn -0.0773 0.9574 0.2782
vn -0.9641 0.2657 0.0000
vn -0.9628 0.2703 0.0000
vn 0.9867 -0.1624 0.0000
vn 0.9276 0.3519 -0.1253
vn 0.9548 0.2091 0.2112
vn -0.5498 0.6044 0.5766
vn 0.9846 -0.1621 -0.0655
vn 0.9753 0.0482 0.2157
vn 0.9913 -0.0668 -0.1134
vn 0.9513 0.2885 -0.1088
vn 0.9343 0.3545 -0.0376
vn 0.2480 0.1684 -0.9540
vn -0.2730 -0.1181 -0.9547
vn 0.0845 0.2024 -0.9756
vn 0.0827 0.2851 -0.9549
vn 0.3122 0.2062 -0.9274
vn 0.0000 0.0000 -1.0000
vn 0.0000 0.2861 -0.9582
vn -0.2753 0.1062 -0.9555
vn 0.0000 0.0000 1.0000
vn 0.0000 -0.9972 0.0748
vn -0.0075 0.9978 -0.0652
vn -0.7749 0.6321 0.0000
vn 0.1094 0.9335 0.3414
vn 0.0000 0.9988 0.0496
vn 0.0498 0.9988 0.0000
vn 0.2076 0.9764 0.0587
vn 0.2080 0.9781 0.0000
vn 0.0000 0.9548 -0.2972
vn 1.0000 0.0000 0.0000
vn 0.0000 1.0000 0.0000
vn 0.7749 -0.6321 0.0000
vn 0.0593 0.7862 0.6152
vn 0.0000 0.9396 0.3423
vn -0.5696 0.8216 0.0235
vn -0.9626 0.0707 0.2615
vn -0.1972 0.3749 0.9058
vn 0.1970 0.3739 0.9063
vn 0.2654 0.4234 0.8662
vn 0.1478 0.0276 0.9886
vn -0.1476 0.0270 0.9887
vn -0.1060 0.0586 0.9926
vn 0.1259 0.0442 0.9911
usemtl Material
s off
f 16/1/1 25/2/1 10/3/1
f 21/4/2 10/3/2 25/2/2
f 21/4/3 25/2/3 11/5/3
f 11/5/4 25/2/4 17/6/4
f 11/5/5 17/6/5 27/7/5
f 13/8/6 19/9/6 29/10/6
f 27/11/7 19/12/7 15/13/7
f 30/14/8 19/12/8 27/11/8
f 19/12/9 30/14/9 29/15/9
f 30/16/10 27/17/10 17/18/10
f 30/19/11 17/20/11 29/21/11
f 25/2/12 16/1/12 20/22/12
f 25/2/13 20/22/13 17/6/13
f 18/23/14 14/24/14 24/25/14
f 13/26/15 24/25/15 19/12/15
f 23/27/16 24/25/16 13/26/16
f 29/21/17 17/20/17 20/28/17
f 18/23/18 24/25/18 12/29/18
f 23/27/19 12/29/19 24/25/19
f 14/24/20 22/30/20 24/25/20
f 22/30/21 15/13/21 24/25/21
f 19/12/22 24/25/22 15/13/22
f 14/31/23 33/32/23 26/33/23 22/34/23
f 27/35/24 15/36/24 22/34/24
f 32/37/25 27/35/25 22/34/25
f 22/34/26 26/33/26 32/37/26
f 27/35/27 32/37/27 11/38/27
f 21/39/28 11/38/28 32/37/28
f 32/37/29 26/33/29 21/39/29
f 10/40/30 21/39/30 26/33/30 33/32/30
f 3/41/31 4/42/31 33/43/31
f 33/43/32 10/44/32 3/41/32
f 10/45/33 3/46/33 16/47/33
f 31/48/34 16/49/34 3/50/34
f 12/51/35 28/52/35 35/53/35
f 35/54/36 5/55/36 12/56/36
f 34/57/37 12/56/37 5/55/37
f 18/23/38 12/29/38 34/58/38
f 34/58/39 7/59/39 18/23/39
f 18/23/39 7/59/39 14/24/39
f 33/32/40 14/31/40 7/60/40
f 7/60/28 8/61/28 33/32/28
f 8/62/31 33/43/31 4/42/31
f 3/63/41 31/64/41 4/65/41
f 31/64/41 1/66/41 2/67/41
f 2/68/28 1/69/28 35/70/28
f 5/71/31 35/72/31 6/73/31
f 5/74/41 6/75/41 34/58/41
f 7/59/41 34/58/41 8/76/41
f 6/75/41 8/76/41 34/58/41
f 2/77/31 6/73/31 35/72/31
f 4/65/41 31/64/41 2/67/41
f 2/77/42 6/78/42 8/79/42 4/80/42
f 31/64/43 16/81/43 1/66/43
f 9/82/44 1/83/44 28/52/44
f 28/52/45 1/83/45 35/53/45
f 9/84/46 16/1/46 1/85/46
f 16/1/47 9/84/47 20/22/47
f 29/21/48 20/28/48 36/86/48
f 23/87/49 29/21/49 36/86/49
f 23/87/50 13/88/50 29/21/50
f 23/87/51 36/86/51 28/52/51
f 28/52/52 36/86/52 20/28/52
f 20/28/53 9/82/53 28/52/53
f 12/51/54 23/87/54 28/52/54
l 26 10
l 14 26
